<?xml version="1.0" encoding="utf-8"?>
<svg version="1.1" id="Layer_1" xmlns="http://www.w3.org/2000/svg" xmlns:xlink="http://www.w3.org/1999/xlink" x="0px" y="0px"
	 viewBox="0 0 100 100">
<rect x="0" y="0" fill="#E7E7E7" width="100" height="100"/>
<path fill="#B9BABC" d="M6.8,100c0-19.4,11.8-34.5,30.3-39.2c3.2,1.9,8.9,3,12.9,3c4,0,9.4-1.1,12.7-3c18.5,4.7,30.5,19.8,30.5,39.2"/>
<path fill="#B9BABC" d="M72.2,35.5c0,9.2-5.9,17.7-14.5,20.8c-8.7,3.2-18.8,0.5-24.7-6.7C27,42.4,26.2,32,31,24
	c4.8-7.9,14.3-12.1,23.4-10.3c9,1.8,16.1,9.2,17.5,18.3C72.1,33.1,72.2,34.3,72.2,35.5z"/>
</svg>
